<svg width="31" height="28" viewBox="0 0 31 28" fill="none" xmlns="http://www.w3.org/2000/svg">
<path d="M29.606 10.2972H22.9291L16.8236 0.6196C16.5588 0.206533 16.1127 0 15.6666 0C15.2206 0 14.7745 0.206533 14.5097 0.634352L8.40422 10.2972H1.72725C0.960586 10.2972 0.333313 10.961 0.333313 11.7724C0.333313 11.9052 0.347252 12.0379 0.389071 12.1707L3.92968 25.8462C4.25028 27.0854 5.32362 28 6.60604 28H24.7273C26.0097 28 27.083 27.0854 27.4176 25.8462L30.9582 12.1707L31 11.7724C31 10.961 30.3727 10.2972 29.606 10.2972ZM15.6666 4.10116L19.5697 10.2972H11.7636L15.6666 4.10116ZM24.7273 25.0495L6.61998 25.0643L3.55331 13.2476H27.7939L24.7273 25.0495ZM15.6666 16.1981C14.1333 16.1981 12.8788 17.5258 12.8788 19.1486C12.8788 20.7713 14.1333 22.0991 15.6666 22.0991C17.2 22.0991 18.4545 20.7713 18.4545 19.1486C18.4545 17.5258 17.2 16.1981 15.6666 16.1981Z" fill="white"/>
</svg>
